<?xml version="1.0" encoding="utf-8"?>
<!-- Generator: Adobe Illustrator 25.4.0, SVG Export Plug-In . SVG Version: 6.00 Build 0)  -->
<svg version="1.1" id="Capa_1" xmlns="http://www.w3.org/2000/svg" xmlns:xlink="http://www.w3.org/1999/xlink" x="0px" y="0px"
	 viewBox="0 0 25.4 19.3" style="enable-background:new 0 0 25.4 19.3;" xml:space="preserve">
<style type="text/css">
	.st0{fill:#FFFFFF;}
</style>
<rect x="3.7" y="0.6" class="st0" width="18" height="18"/>
<path d="M2,14.4L9.2,10L2,5.6V14.4z M23.3,16.1l-8.6-5.3l-2,1.2l-2-1.2l-8.6,5.3c0.2,0.7,0.8,1.1,1.5,1.1h18.3
	C22.6,17.3,23.2,16.8,23.3,16.1z M23.4,5.6L16.2,10l7.2,4.4V5.6z M3.6,2C2.7,2,2,2.7,2,3.5v0.3l10.7,6.4l10.7-6.4V3.5
	c0-0.8-0.7-1.5-1.5-1.5H3.6z M0.5,3.5c0-1.7,1.4-3,3-3h18.3c1.7,0,3,1.4,3,3v12.2c0,1.7-1.4,3-3,3H3.6c-1.7,0-3-1.4-3-3V3.5z"/>
</svg>
