<?xml version="1.0" encoding="utf-8"?>
<!-- Generator: Adobe Illustrator 25.4.0, SVG Export Plug-In . SVG Version: 6.00 Build 0)  -->
<svg version="1.1" id="Capa_1" xmlns="http://www.w3.org/2000/svg" xmlns:xlink="http://www.w3.org/1999/xlink" x="0px" y="0px"
	 viewBox="0 0 315 308" style="enable-background:new 0 0 315 308;" xml:space="preserve">
<style type="text/css">
	.st0{fill:#457FBF;}
</style>
<g>
	<g>
		<path class="st0" d="M237.2,118.6v129.6c0,0,0.1,0.3-0.5,1c-1.8,2-3.7,4.8-7.2,7.2c0-26.7,0-54.2,0-80.9c0-29.5,0-59,0-88.5
			c0-3.9-1.3-5.2-5.2-5.2c-44.6,0-89.3,0-133.9,0c-3.7,0-5.1,1.4-5.1,5.1c0,57.1,0,114.3,0,171.4c-1.9-1.7-3.5-3.1-5.3-4.8
			c-1.4-1.3-2.1-2.4-2.4-3.2v-132l0.2-31.8c0.1-2.2,0.7-4.7,1.6-6.7c1.3-3.1,4.4-4.4,7.3-5.6h141.4c7,2.4,9.5,7.5,9,14.6
			c-0.3,5.3-0.1,10.7,0,16L237.2,118.6z"/>
		<path class="st0" d="M176.5,148.7c6.8,6.8,13.5,13.5,20.2,20.2c0.6,0.6,1.2,1.1,1.7,1.8c1.1,1.6,0.9,3.6-0.4,4.9
			c-1.3,1.3-3.4,1.5-4.9,0.4c-0.7-0.5-1.2-1.1-1.8-1.7c-6.7-6.7-13.4-13.4-20.2-20.2c-9.2,6.9-19.4,9.1-30.4,6.3
			c-8.1-2.2-14.7-6.8-19.4-14c-9.4-14.1-7.2-33.1,5.1-44.1c13.1-11.9,31.6-12.5,45.4-1.2C183.6,110.6,189.7,131,176.5,148.7z
			 M131,145.8c1-5.1,3.6-8.9,7.7-11.6c-5.6-8.9-5.3-16.3,0.7-21.8c5.3-5,13.6-5.4,19.2-1.3c3.2,2.3,5.2,5.4,6.1,9.3
			c1,5.2-0.5,9.7-3.7,13.5c1.8,1.9,3.7,3.5,4.9,5.3c1.3,1.9,2,4.1,2.9,6.2c9.6-9.1,10.4-26.5-0.7-37.4c-9.9-9.6-27.2-9.6-36.9,0.4
			C120.3,119.3,121.2,136.4,131,145.8z M149.7,154.2c3.4-0.8,6.7-1.6,9.9-2.5c0.7-0.2,1.4-1.3,1.4-2.1c0.3-5.4-2.2-8.8-7.3-10.4
			c-8.1-2.5-15.4,2.3-15.3,10.2c0,1.2,0.4,2,1.5,2.2C143.2,152.6,146.4,153.5,149.7,154.2z M149.8,115.9c-4.1,0-7.5,3.4-7.6,7.4
			c-0.1,4.1,3.5,7.7,7.6,7.7c4-0.1,7.5-3.6,7.5-7.6C157.3,119.4,153.9,115.9,149.8,115.9z"/>
		<path class="st0" d="M183.9,199.5c-7,0-14.1,0-21.1,0c-0.8,0-1.8-0.1-2.6-0.3c-1.9-0.5-2.9-1.8-2.8-3.7c0.1-1.8,1-3.1,2.9-3.5
			c0.8-0.2,1.8-0.3,2.6-0.3c14,0,28,0,42,0c0.4,0,0.7,0,1.1,0c2.8,0.2,4.5,1.7,4.4,3.9c0,2.2-1.8,3.8-4.6,3.8
			C198.5,199.5,191.2,199.5,183.9,199.5z"/>
		<path class="st0" d="M183.8,225.9c7.1,0,14.2,0,21.4,0c0.9,0,2,0.1,2.8,0.4c1.8,0.6,2.5,2,2.4,3.7c-0.1,1.7-1,2.9-2.7,3.3
			c-0.9,0.2-1.9,0.3-2.9,0.3c-14,0-27.8,0-41.8,0c-3.8,0-5.6-1.2-5.6-3.8c0-2.6,1.9-3.9,5.8-3.9
			C170.1,225.9,176.9,225.9,183.8,225.9z"/>
		<path class="st0" d="M183.8,267.6c-6.9,0-13.8,0-20.7,0c-0.8,0-1.6,0-2.4-0.1c-2-0.3-3.1-1.4-3.3-3.3c-0.2-2,0.7-3.3,2.5-3.9
			c0.8-0.3,1.8-0.3,2.6-0.3c14.2,0,28.5,0,42.6,0c0.7,0,1.3,0,2,0.1c2,0.4,3.3,2,3.2,3.9c-0.1,2-1.5,3.5-3.6,3.6
			c-4.5,0.1-9,0.1-13.6,0.1C190.2,267.6,187,267.6,183.8,267.6z"/>
		<path class="st0" d="M115.5,232c4-4,7.7-7.7,11.3-11.3c2.6-2.6,5.2-5.2,7.9-7.9c2.4-2.4,4.6-2.7,6.4-0.9c1.8,1.8,1.5,3.9-0.9,6.4
			c-6.9,6.9-14,14-20.9,20.9c-2.6,2.6-4.6,2.6-7.2,0c-2.1-2.1-4.1-4-6.1-6.1c-2-2.1-2.2-4.2-0.6-5.9c1.7-1.8,3.8-1.6,6,0.6
			C112.7,229,114,230.5,115.5,232z"/>
		<path class="st0" d="M115.6,266.2c6.6-6.6,12.7-12.8,19-19c0.7-0.7,1.4-1.3,2.2-1.8c1.6-0.8,3.1-0.6,4.2,0.7
			c1.2,1.2,1.6,2.7,0.7,4.3c-0.4,0.7-1,1.4-1.7,2.1c-6.9,6.9-13.8,13.9-20.7,20.8c-2.9,2.9-4.6,2.9-7.5,0c-2.1-2.1-4.1-4-6.1-6.2
			c-1.9-1.9-2-4.1-0.5-5.7c1.7-1.7,3.8-1.6,5.9,0.4C112.7,263.1,114,264.6,115.6,266.2z"/>
		<path class="st0" d="M115.4,198c6.7-6.7,12.8-12.8,18.9-19c0.7-0.7,1.2-1.3,2-1.8c1.6-1,3.3-0.8,4.7,0.5c1.3,1.3,1.6,3,0.6,4.7
			c-0.5,0.7-1,1.3-1.6,1.9c-6.8,6.8-13.7,13.7-20.6,20.6c-3,3-4.7,2.9-7.7-0.1c-2.1-2.1-4.1-4-6.1-6.1c-1.9-1.9-1.9-4.1-0.3-5.7
			c1.6-1.6,3.7-1.5,5.7,0.3c0.7,0.7,1.5,1.4,2.2,2.2C114,196.1,114.5,196.9,115.4,198z"/>
	</g>
	<g>
		<path class="st0" d="M147.5,298.6c-5-0.7-10-1.4-15-2.2c-33.3-5.9-61.1-21.8-83.5-47.1c-19-21.5-30.8-46.7-34.5-75.2
			c-5.3-40.3,4.3-76.9,29.4-109c22.2-28.4,51.3-46.4,86.8-53c42.7-7.8,81.7,1.6,115.9,28.3c29.4,23,47.1,53.3,53.6,90.1
			c0.8,4.4,1.2,8.9,1.8,13.4c0,6.8,0,13.5,0,20.3c-0.4,3.2-0.8,6.5-1.3,9.7c-4.2,28.5-15.6,53.8-34.7,75.4c-22.3,25.2-50,41-83.2,47
			c-5.1,0.9-10.2,1.5-15.3,2.2C161,298.6,154.3,298.6,147.5,298.6z M293.7,154.1c0.1-74.8-61.1-136.1-136-136.2
			c-74.8,0-136,61.2-136.1,136.1c-0.1,74.8,61.1,136.1,136,136.2C232.3,290.2,293.6,229,293.7,154.1z"/>
	</g>
</g>
</svg>
