<?xml version="1.0" encoding="utf-8"?>
<!-- Generator: Adobe Illustrator 25.4.0, SVG Export Plug-In . SVG Version: 6.00 Build 0)  -->
<svg version="1.1" id="Capa_1" xmlns="http://www.w3.org/2000/svg" xmlns:xlink="http://www.w3.org/1999/xlink" x="0px" y="0px"
	 viewBox="0 0 315 308" style="enable-background:new 0 0 315 308;" xml:space="preserve">
<style type="text/css">
	.st0{fill:#457FBF;}
</style>
<g>
	<path class="st0" d="M161.6,196.6c1.7,8.7,3.3,17.4,4.9,26.1c0.2,0.7,0.1,1.6-0.2,2.3c-2.8,7.4-5.6,14.7-8.3,22.1
		c-0.1,0.3-0.3,0.5-0.7,1.2c-1.3-3.6-2.6-6.8-3.9-10c-0.2-0.4-0.4-0.9-0.5-1.3c-1.6-4.5-4.2-8.8-4.6-13.4c-0.4-4.6,1.4-9.3,2.3-14
		c1.3-6.7,2.7-13.5,3.8-20.3c0.3-1.6-0.1-3.6-0.9-5.1c-2.2-4.4-4.6-8.6-7.1-13.3h21.7c-1.3,2.6-2.6,4.9-3.9,7.3
		C159.7,186.9,159.8,186.9,161.6,196.6z M83.3,259.4c0,0-0.1-41.4,0.4-50c1.1-17.5,16.9-34.7,34.2-37.6c0.5-0.1,1.2-0.1,1.9-0.2
		c2.4,6.4,4.8,12.7,7.2,19.1c8.8,23.1,17.6,46.2,26.4,69.3c0.8,2.1,1.8,3.8,4.2,3.8c2.4,0,3.4-1.8,4.2-3.9
		c10.9-28.6,21.7-57.2,32.6-85.8c0.3-0.7,0.5-1.5,1-2.6c7.4,1.1,13.7,3.9,19.4,8.3c10.9,8.6,16.8,19.8,16.9,33.7
		c0.2,8.9,0.1,36.2,0,45.1c3.8-1.8,8.2-6.4,8.2-6.4c0-3.3,0-23.7,0-26.7c-0.1-7.7,0.4-15.4-1.3-23c-4.7-21.1-23.6-37.8-45-39.5
		c-2.5-0.2-3.9,1.1-4.8,3.4c-4.6,12.3-9.2,24.5-13.8,36.8c-0.7,1.8-1.4,3.6-2.2,5.4c-0.3,0-0.3,0-0.4,0c-0.7-3.9-1.2-7.9-2.3-11.7
		c-2.1-6.5-0.9-12,2.9-17.5c2.2-3.1,3.8-6.7,5.6-10.1c2.1-3.9-0.3-7-5.1-6.4c-10.5,1.3-21,1.1-31.5,0c-4.8-0.5-7,2.5-4.9,6.4
		c3,5.7,6.2,11.4,9.1,17.1c0.4,0.9,0.6,2.2,0.4,3.2c-1,5.7-2.1,11.5-3.1,17.1c-0.2,0.7-0.4,1.3-0.7,2.5c-3.1-8.2-6.2-16.1-9.1-24
		c-2.3-6.2-4.7-12.5-7-18.7c-1.2-3.1-2.4-3.9-5.8-3.4c-23.1,3-41.1,20.3-44.7,43c-0.4,3-0.5,6-0.6,9.1c-0.1,3.9,0,33.5,0,37.6
		C75.3,252.9,77.4,255,83.3,259.4z M157.7,68.8c-24.3-0.1-44.3,19.6-44.4,43.9c-0.1,24,19.6,44.1,43.5,44.2
		c24.8,0.1,44.6-19.4,44.7-43.9C201.6,88.8,181.9,68.9,157.7,68.8z M157.6,149.1c-19.9,0-36.1-16.1-36.1-36.1s16.1-36.2,36-36.1
		c19.9,0,36,16.2,36,36.2C193.6,132.9,177.3,149.1,157.6,149.1z"/>
	<g>
		<path class="st0" d="M147.5,298.6c-5-0.7-10-1.4-15-2.2c-33.3-5.9-61.1-21.8-83.5-47.1c-19-21.5-30.8-46.7-34.5-75.2
			c-5.3-40.3,4.3-76.9,29.4-109c22.2-28.4,51.3-46.4,86.8-53c42.7-7.8,81.7,1.6,115.9,28.3c29.4,23,47.1,53.3,53.6,90.1
			c0.8,4.4,1.2,8.9,1.8,13.4c0,6.8,0,13.5,0,20.3c-0.4,3.2-0.8,6.5-1.3,9.7c-4.2,28.5-15.6,53.8-34.7,75.4c-22.3,25.2-50,41-83.2,47
			c-5.1,0.9-10.2,1.5-15.3,2.2C161,298.6,154.3,298.6,147.5,298.6z M293.7,154.1c0.1-74.8-61.1-136.1-136-136.2
			c-74.8,0-136,61.2-136.1,136.1c-0.1,74.8,61.1,136.1,136,136.2C232.3,290.2,293.6,229,293.7,154.1z"/>
	</g>
</g>
</svg>
