<?xml version="1.0" encoding="utf-8"?>
<!-- Generator: Adobe Illustrator 25.4.0, SVG Export Plug-In . SVG Version: 6.00 Build 0)  -->
<svg version="1.1" id="Capa_1" xmlns="http://www.w3.org/2000/svg" xmlns:xlink="http://www.w3.org/1999/xlink" x="0px" y="0px"
	 viewBox="0 0 315 308" style="enable-background:new 0 0 315 308;" xml:space="preserve">
<style type="text/css">
	.st0{fill:#457FBF;}
</style>
<g>
	<path class="st0" d="M147.5,298.6c-5-0.7-10-1.4-15-2.2c-33.3-5.9-61.1-21.8-83.5-47.1c-19-21.5-30.8-46.7-34.5-75.2
		c-5.3-40.3,4.3-76.9,29.4-109c22.2-28.4,51.3-46.4,86.8-53c42.7-7.8,81.7,1.6,115.9,28.3c29.4,23,47.1,53.3,53.6,90.1
		c0.8,4.4,1.2,8.9,1.8,13.4c0,6.8,0,13.5,0,20.3c-0.4,3.2-0.8,6.5-1.3,9.7c-4.2,28.5-15.6,53.8-34.7,75.4c-22.3,25.2-50,41-83.2,47
		c-5.1,0.9-10.2,1.5-15.3,2.2C161,298.6,154.3,298.6,147.5,298.6z M293.7,154.1c0.1-74.8-61.1-136.1-136-136.2
		c-74.8,0-136,61.2-136.1,136.1c-0.1,74.8,61.1,136.1,136,136.2C232.3,290.2,293.6,229,293.7,154.1z"/>
	<g>
		<path class="st0" d="M157.4,114.7c-27.4,0-54.7,0-82.1,0c-5.2,0-6.3-1.1-6.3-6.3c0-5.7,0-11.2,0-16.9c0-7.4,4.8-12.4,12.1-13.1
			c0.8,0,1.5,0,2.2,0c49.3,0,98.7,0,148,0c3.4,0,6.6,0.5,9.4,2.8c3.4,2.6,4.9,6.1,4.9,10.3c0,5.8,0,11.8,0,17.7
			c0,4.1-1.4,5.5-5.7,5.5C212.6,114.7,184.9,114.7,157.4,114.7z M77.5,106.3c53.3,0,106.4,0,159.7,0c0-4.5,0-8.8,0-13.1
			c0-5.4-0.9-6.3-6.1-6.3c-49,0-98.1,0-147.2,0c-0.6,0-1.2,0-2,0c-2.8,0-4.3,1.5-4.3,4C77.3,96,77.5,101.1,77.5,106.3z"/>
		<path class="st0" d="M157.4,229.5c-24.9,0-50,0-74.8,0c-8.1,0-13.4-5.2-13.4-13.5c0-28.7,0-57.6,0-86.4c0-3.5,1.2-5.4,4-5.5
			c2.3-0.2,3.8,1.1,4.3,3.4c0.2,1.1,0.2,2.2,0.2,3.2c0,28,0,55.9,0,83.9c0,5.5,1.1,6.6,6.6,6.6c48.7,0,97.6,0,146.3,0
			c5.8,0,6.8-0.9,6.8-6.9c0-27.8,0-55.6,0-83.5c0-1.1,0-2,0.2-3.1c0.3-2.3,1.5-3.7,4-3.8c2.5-0.2,3.7,1.2,4.3,3.5
			c0.2,0.8,0.2,1.7,0.2,2.5c0,28.6,0,57,0,85.6c0,8.8-5.1,14-13.8,14C207.1,229.5,182.3,229.5,157.4,229.5z"/>
		<path class="st0" d="M194.8,159.1c-5.8-3.7-11.4-7.2-17.1-10.8c-0.9-0.6-1.7-1.1-2.5-1.7c-1.7-1.5-2.2-3.5-0.9-5.4
			c1.2-2,3.2-2.6,5.2-1.4c2.5,1.4,4.8,2.9,7.1,4.3c5.5,3.5,11.2,7.1,16.8,10.6c4,2.6,4.1,5.5,0.2,8.5c-7.4,5.2-14.8,10.3-22.1,15.5
			c-2.8,2-5.2,1.7-6.8-0.5c-1.4-2.2-0.8-4.3,1.8-6.3C182.6,167.6,188.6,163.5,194.8,159.1z"/>
		<path class="st0" d="M120.2,159.1c6.1,4.3,12.1,8.3,18,12.6c1.2,0.9,2.3,2.5,2.6,4c0.5,3.2-3.4,5.4-6.1,3.5
			c-8.1-5.5-16.3-11.2-24.4-17.1c-2.6-1.8-2.5-4.9,0.2-6.8c8.1-5.2,16.3-10.5,24.4-15.5c2.2-1.4,4.6-0.8,5.8,1.2
			c1.2,2,0.8,4.5-1.5,6c-5.5,3.5-11.2,7.1-16.8,10.6C121.6,158.2,121,158.7,120.2,159.1z"/>
		<path class="st0" d="M150.5,189.3c-3.2,0-4.9-2.8-4-6.3c1.5-5.7,3.2-11.5,4.9-17.2c2.9-10.5,5.8-21.1,8.8-31.5
			c0.6-2.3,1.7-3.8,4.1-4c3.1-0.2,4.9,2.6,3.8,6.3c-1.7,6.3-3.5,12.8-5.4,19.1c-2.8,9.8-5.5,19.7-8.3,29.4
			C154,187.4,153,189.1,150.5,189.3z"/>
		<path class="st0" d="M204.6,208.9c-5.4,0-10.8,0-16.3,0c-3.4,0-5.1-1.5-5.1-4.1c0-2.8,1.8-4.3,5.2-4.3c11.1,0,22,0,33,0
			c3.8,0,6,2.8,4.8,5.8c-0.9,2.3-2.8,2.8-4.9,2.8C215.8,208.9,210.3,208.9,204.6,208.9z"/>
		<path class="st0" d="M215.2,183.9c2.5,0,4.8-0.2,7.2,0c2.6,0.2,4.3,1.7,4.5,4c0.2,2.5-1.5,4.3-4.3,4.5c-5.1,0.2-10.1,0.2-15.1,0
			c-2.6,0-4.5-2-4.5-4.3s1.8-4,4.6-4.1C210,183.9,212.6,183.9,215.2,183.9z"/>
		<path class="st0" d="M100.1,200.5c2.2,0,4.1,0,6.3,0c2.8,0.2,4.6,1.8,4.6,4.1s-1.8,4.1-4.5,4.3c-4.3,0.2-8.6,0.2-12.9,0
			c-2.6-0.2-4.5-2-4.5-4.3s2-4,4.6-4.1c0.2,0,0.3,0,0.6,0C96.3,200.5,98.1,200.5,100.1,200.5z"/>
		<path class="st0" d="M89.2,100.3c2.5,0,4.3-2,4.1-4.5c-0.2-2.3-2.2-4.1-4.3-4.1c-2.3,0-4.5,2.2-4.3,4.5
			C84.7,98.6,86.7,100.4,89.2,100.3z M109.3,96c0-2.3-2.2-4.5-4.5-4.3c-2.3,0-4.3,2.3-4.3,4.6c0.2,2.3,2,4.1,4.3,4.1
			C107.5,100.4,109.3,98.4,109.3,96z M125.5,96.1c0-2.3-2-4.5-4.3-4.5c-2.3,0-4.5,2.2-4.5,4.5c0,2.3,1.8,4.1,4.1,4.3
			C123.3,100.4,125.3,98.6,125.5,96.1z"/>
		<path class="st0" d="M89.2,100.3c-2.5,0-4.5-1.8-4.5-4.1c0-2.3,2-4.5,4.3-4.5s4.3,1.8,4.3,4.1C93.5,98.3,91.6,100.3,89.2,100.3z"
			/>
		<path class="st0" d="M109.3,96c0,2.5-1.8,4.3-4.3,4.3c-2.3,0-4.3-1.8-4.3-4.1c-0.2-2.3,2-4.5,4.3-4.6
			C107.3,91.7,109.3,93.7,109.3,96z"/>
		<path class="st0" d="M125.5,96.1c0,2.5-2,4.3-4.5,4.1c-2.3-0.2-4.1-2-4.1-4.3c0-2.3,2.2-4.5,4.5-4.5
			C123.5,91.7,125.5,93.8,125.5,96.1z"/>
	</g>
</g>
</svg>
