<svg width="464" height="203" viewBox="0 0 464 203" fill="none" xmlns="http://www.w3.org/2000/svg">
<rect opacity="0.100655" y="22" width="464" height="168" rx="24" fill="#3F8CFF"/>
<mask id="mask0_85_13515" style="mask-type:luminance" maskUnits="userSpaceOnUse" x="0" y="22" width="464" height="168">
<rect y="22" width="464" height="168" rx="24" fill="white"/>
</mask>
<g mask="url(#mask0_85_13515)">
<path fill-rule="evenodd" clip-rule="evenodd" d="M407.346 175.505C409.505 175.073 415.333 170.527 420.082 157.972C422.794 150.799 430.442 113.814 420.082 111.217C409.72 108.618 411.664 127.234 411.664 144.334C411.664 154.76 407.346 175.505 407.346 175.505" fill="#BFD9FF"/>
<path fill-rule="evenodd" clip-rule="evenodd" d="M402.598 177.237C408.047 176.872 406.915 121.606 407.346 108.618C407.779 95.6305 410.369 47.144 403.03 39.3516C395.691 31.5592 388.137 38.4864 387.489 48.5511C387.181 53.3228 388.784 88.0551 389.647 98.012C390.511 107.969 391.59 130.481 392.453 144.768C393.317 159.054 396.122 177.67 402.598 177.237" fill="#BFD9FF"/>
<path fill-rule="evenodd" clip-rule="evenodd" d="M392.453 177.885C392.453 177.885 380.357 153.955 377.344 135.459C371.948 102.34 370.869 70.0883 378.208 70.5209C385.546 70.955 386.077 103.427 386.41 117.277C387.272 153.21 395.691 175.72 395.691 175.72L392.453 177.885" fill="#BFD9FF"/>
<path fill-rule="evenodd" clip-rule="evenodd" d="M393.468 176.905L394.029 176.702C393.986 176.583 389.724 164.721 386.906 156.789C381.375 141.213 380.456 120.502 380.449 120.295L379.853 120.32C379.861 120.528 380.783 141.326 386.345 156.989C389.163 164.924 393.425 176.786 393.468 176.905" fill="#1B54AA"/>
<path fill-rule="evenodd" clip-rule="evenodd" d="M400.789 173.557H401.385C401.385 166.166 400.102 144.535 400.09 144.316L399.495 144.353C399.507 144.57 400.789 166.183 400.789 173.557" fill="#1B54AA"/>
<path fill-rule="evenodd" clip-rule="evenodd" d="M409.455 175.294C409.501 175.183 414.027 164.12 416.593 154.15C419.165 144.154 418.551 134.668 418.543 134.573L417.949 134.615C417.956 134.708 418.563 144.102 416.016 154C413.46 163.93 408.95 174.956 408.906 175.066L409.455 175.294" fill="#1B54AA"/>
<mask id="mask1_85_13515" style="mask-type:luminance" maskUnits="userSpaceOnUse" x="389" y="170" width="26" height="33">
<path fill-rule="evenodd" clip-rule="evenodd" d="M414.036 170.527H389.002L393.364 202.714H409.673L414.036 170.527V170.527Z" fill="white"/>
</mask>
<g mask="url(#mask1_85_13515)">
<path fill-rule="evenodd" clip-rule="evenodd" d="M389.002 175.831H414.036V173.232H389.002V175.831Z" fill="#FADFDC"/>
</g>
<path fill-rule="evenodd" clip-rule="evenodd" d="M415 170H389L393.531 203H410.469L415 170" fill="#3F8CFF"/>
<mask id="mask2_85_13515" style="mask-type:luminance" maskUnits="userSpaceOnUse" x="389" y="170" width="26" height="33">
<path fill-rule="evenodd" clip-rule="evenodd" d="M415 170H389L393.531 203H410.469L415 170" fill="white"/>
</mask>
<g mask="url(#mask2_85_13515)">
<path fill-rule="evenodd" clip-rule="evenodd" d="M385 174.702H415V174.298H385V174.702Z" fill="#CFE0FF"/>
</g>
<path fill-rule="evenodd" clip-rule="evenodd" d="M45.562 208H46.438V148H45.562V208Z" fill="#233862"/>
<path fill-rule="evenodd" clip-rule="evenodd" d="M59.561 199H60.439V48H59.561V199Z" fill="#233862"/>
<path fill-rule="evenodd" clip-rule="evenodd" d="M52.562 207H53.438V96H52.562V207Z" fill="#233862"/>
<path fill-rule="evenodd" clip-rule="evenodd" d="M73.561 190H74.439V75H73.561V190Z" fill="#233862"/>
<path fill-rule="evenodd" clip-rule="evenodd" d="M66.562 200H67.438V45H66.562V200Z" fill="#233862"/>
<path fill-rule="evenodd" clip-rule="evenodd" d="M38 196C38 183.849 47.8506 174 60.0007 174C72.1509 174 82 183.849 82 196C82 208.151 72.1509 218 60.0007 218C47.8506 218 38 208.151 38 196" fill="#FDC748"/>
<path fill-rule="evenodd" clip-rule="evenodd" d="M45.7534 172H74.2451C75.767 172 77 173.633 77 175.647V181.354C77 183.367 75.767 185 74.2451 185H45.7534C44.2315 185 43 183.367 43 181.354V175.647C43 173.633 44.2315 172 45.7534 172" fill="#FDC748"/>
<path fill-rule="evenodd" clip-rule="evenodd" d="M43.1582 179.909H76.8692V179.252H43.1582V179.909Z" fill="white" fill-opacity="0.757567"/>
<path fill-rule="evenodd" clip-rule="evenodd" d="M53.1887 43.7338C52.4697 46.5435 51.7192 49.3352 50.625 52.0284C50.9807 51.1884 51.3379 50.3483 51.6952 49.5083C51.6066 49.7127 51.5165 49.9186 51.428 50.1245C50.2452 52.858 49.5292 55.2573 50.3578 58.2549C51.0888 60.893 52.8644 63.1804 55.236 64.5621C57.6887 65.9885 60.6771 66.375 63.4165 65.6259C65.7956 64.9754 68.7375 63.1401 69.7612 60.7751C71.3898 57.0105 72.6476 53.3086 73.6608 49.3441C75.0867 43.7726 71.9031 37.9102 66.2474 36.3629C60.7537 34.8603 54.6146 38.1608 53.1887 43.7338" fill="#87B7FF"/>
<path fill-rule="evenodd" clip-rule="evenodd" d="M19.8189 143.007C21.8319 148.987 25.8385 154.012 30.5696 158.068C34.9221 161.798 42.1857 159.707 45.1695 155.368C48.6685 150.281 46.8114 144.487 42.4707 140.766C44.7687 142.737 42.3698 140.508 41.9318 139.999C41.5444 139.548 39.671 136.724 41.1955 139.139C40.1505 137.484 39.337 135.688 38.7135 133.835C36.8861 128.399 29.3315 126.719 24.6821 128.972C19.0485 131.703 17.996 137.586 19.8189 143.007" fill="#87B7FF"/>
<path fill-rule="evenodd" clip-rule="evenodd" d="M43.1943 102.015C43.1619 105.834 42.4268 109.537 41.7461 113.279C40.8754 118.076 40.7473 122.716 41.4647 127.562C42.3163 133.313 48.4995 136.936 53.8135 135.788C59.6137 134.534 62.7031 128.896 61.853 123.153C61.6718 121.808 61.632 121.603 61.7366 122.535C61.7248 121.771 61.7455 121.008 61.797 120.245C61.8854 118.341 62.2287 116.446 62.5528 114.574C63.201 110.819 63.9671 107.138 63.9995 103.308C64.0496 97.503 60.1131 92.3794 54.229 92.0176C48.7853 91.6815 43.2444 96.2021 43.1943 102.015" fill="#87B7FF"/>
<path fill-rule="evenodd" clip-rule="evenodd" d="M71.353 81.6029C72.0871 83.0061 72.7967 84.4197 73.4803 85.8465C73.777 86.4672 74.0614 87.0938 74.3459 87.7204C73.046 84.8565 74.3474 87.7704 74.589 88.3646C75.658 90.9976 76.938 93.1039 79.5608 94.5822C82.0582 95.9898 85.103 96.3693 87.894 95.6309C93.1334 94.2438 97.5959 88.1234 95.4487 82.834C93.8292 78.8464 92.0307 74.9265 90.0319 71.1021C87.3847 66.0393 80.0762 64.6419 75.2344 67.3704C69.914 70.3681 68.7058 76.5371 71.353 81.6029" fill="#87B7FF"/>
<path fill-rule="evenodd" clip-rule="evenodd" d="M77.5838 110.266C76.8481 111.443 76.058 112.579 75.2267 113.686C75.7696 112.966 76.3111 112.247 76.854 111.528C76.2669 112.295 75.6637 113.051 75.0486 113.796C73.2036 116.024 72 118.325 72 121.336C72 124.153 73.105 126.885 75.0486 128.876C76.9908 130.868 79.6569 132 82.4054 132C84.9641 132 88.0554 130.941 89.7636 128.876C91.8294 126.38 93.8319 123.791 95.5534 121.03C98.6109 116.127 96.5657 109.289 91.8206 106.44C86.7797 103.414 80.6309 105.377 77.5838 110.266" fill="#87B7FF"/>
<path fill-rule="evenodd" clip-rule="evenodd" d="M68.5238 160.96C70.9851 161.148 73.442 160.628 75.8676 160.288C74.936 160.415 74.003 160.543 73.0699 160.67C74.2098 160.52 75.3259 160.423 76.4762 160.482C82.2098 160.778 87 155.377 87 149.751C87 143.678 82.2039 139.314 76.4762 139.019C74.0223 138.893 71.5714 139.412 69.1518 139.746C70.0848 139.619 71.0179 139.491 71.9494 139.362C70.8006 139.508 69.6815 139.585 68.5238 139.496C62.7961 139.059 58 144.71 58 150.229C58 156.409 62.8065 160.523 68.5238 160.96" fill="#87B7FF"/>
</g>
<path fill-rule="evenodd" clip-rule="evenodd" d="M133.85 182.863V146.345C133.85 139.921 146.881 134.71 162.949 134.71H228.75C244.823 134.71 257.85 139.921 257.85 146.345V184.258L133.85 182.863" fill="#B0D4FF"/>
<path fill-rule="evenodd" clip-rule="evenodd" d="M225.921 5.11229C218.143 1.01453 206.305 0.460534 204.385 0.201663C181.375 -2.89913 167.526 30.6312 166.712 40.7935C165.21 59.5206 155.331 62.3756 141.432 74.1013C113.553 97.6206 121.726 124.947 136.97 135.098C146.12 141.193 162.239 135.098 162.239 135.098C162.465 135.256 206.328 110.508 227.948 98.5666C260.362 93.9443 245.74 15.5521 225.921 5.11229" fill="#233862"/>
<path fill-rule="evenodd" clip-rule="evenodd" d="M192.197 88.5255C185.399 85.5653 180.254 74.564 180.351 74.5584C183.443 74.4185 187.995 70.1044 190.61 52.6455L191.2 53.0609L212.9 62.6058C212.9 62.6058 211.297 69.5949 210.256 76.2483C209.387 81.8385 208.915 87.1937 210.126 87.9827C210.222 88.0443 199.416 91.6703 192.197 88.5255Z" fill="#FFB27D"/>
<path fill-rule="evenodd" clip-rule="evenodd" d="M212.9 62.1043C212.9 62.1043 211.328 69.1569 210.308 75.8708C197.845 73.6008 192.95 61.0201 191.2 54.1934L212.9 62.1043" fill="#ED975D"/>
<path fill-rule="evenodd" clip-rule="evenodd" d="M189.837 45.506C192.67 26.9131 190.653 13.8699 210.2 15.6449C229.747 17.4256 232.432 25.0762 233.02 31.5079C233.609 37.9397 225.418 68.6827 217.432 68.121C217.432 68.121 187.003 64.099 189.837 45.506Z" fill="#FFB27D"/>
<path fill-rule="evenodd" clip-rule="evenodd" d="M199.669 41.5373C186.779 42.9075 181.9 38.6001 181.9 38.6001C181.9 38.6001 189.496 32.0379 194.068 21.4457C195.413 18.3236 198.772 15.7787 202.05 15.4839C211.251 14.6571 228.183 14.6869 231.5 23.1803C231.5 23.1803 212.554 40.167 199.669 41.5373Z" fill="#233862"/>
<path fill-rule="evenodd" clip-rule="evenodd" d="M227.542 31.5894C229.49 36.085 230.498 47.0219 228.945 51.2898C228.945 51.2898 238.529 31.4301 232.861 21.8756C226.856 11.7407 219.1 20.6578 219.1 20.6578C219.1 20.6578 225.516 26.9345 227.542 31.5894Z" fill="#233862"/>
<path fill-rule="evenodd" clip-rule="evenodd" d="M229.249 186.05C227.642 187.421 223.137 188.241 217.211 188.625C198.566 189.852 165.797 186.813 164.551 183.407C160.249 171.621 163.288 167.958 159.702 149.911C159.324 147.993 158.862 145.913 158.321 143.649C155.327 131.256 152.417 127.041 163.028 107.126C172.653 89.0895 181.919 73.806 182.821 74.3356C208.21 89.2384 210.075 78.3511 210.075 78.3511C210.075 78.3511 236.59 103.463 236.144 132.789C235.237 192.907 235.896 180.341 229.249 186.05Z" fill="white"/>
<path fill-rule="evenodd" clip-rule="evenodd" d="M166.373 183.426C162.03 171.457 163.82 166.163 160.2 147.836L170.114 123.871C170.114 123.871 168.617 152.186 177.008 159.631C185.398 167.077 211.376 174.007 215.457 180.229C217.427 183.219 218.725 186.208 219.1 188.614C200.277 189.86 167.631 186.885 166.373 183.426Z" fill="#EBF3FF"/>
<path fill-rule="evenodd" clip-rule="evenodd" d="M195.85 176.539C195.85 176.539 214.234 172.053 217.199 173.839C220.163 175.631 227.411 182.143 228.324 184.411C229.231 186.679 221.719 182.687 219.273 181.97C217.695 181.507 213.524 183.089 211.467 183.842C202.787 187.018 197.473 185.387 197.473 185.387L195.85 176.539" fill="#FFB27D"/>
<path fill-rule="evenodd" clip-rule="evenodd" d="M150.722 86.6927C138.759 103.271 115.035 173.916 128.634 183.344C143.947 193.952 198.32 186.117 198.32 186.117C198.32 186.117 200.13 177.714 197.614 173.643C195.093 169.578 154.184 163.012 152.296 161.135C150.408 159.259 175.896 124.538 175.896 118.908C175.896 113.278 182.821 74.3223 182.821 74.3223C182.821 74.3223 159.216 74.9149 150.722 86.6927Z" fill="white"/>
<path fill-rule="evenodd" clip-rule="evenodd" d="M217.55 179.613C217.55 179.613 221.698 184.724 223.059 185.333C224.419 185.941 225.3 185.79 225.3 185.79L222.506 180.987L217.55 179.613" fill="#FFB27D"/>
<path fill-rule="evenodd" clip-rule="evenodd" d="M216 174.968L228.4 180.438C228.4 180.438 227.87 181.22 226.347 181.158C224.818 181.095 220.967 179.814 220.967 179.814L216 174.968" fill="#FFB27D"/>
<path fill-rule="evenodd" clip-rule="evenodd" d="M223.75 192H311.923L338.45 125.419H250.411L223.75 192" fill="#FDC748"/>
<path fill-rule="evenodd" clip-rule="evenodd" d="M312.1 188.903H195.85V192H311.069L312.1 188.903" fill="#E6B137"/>
<path fill-rule="evenodd" clip-rule="evenodd" d="M288.667 158.707C289.378 156.571 287.951 154.839 285.479 154.839C283.013 154.839 280.44 156.571 279.73 158.707C279.025 160.843 280.452 162.581 282.918 162.581C285.39 162.581 287.963 160.843 288.667 158.707" fill="white"/>
</svg>
