<?xml version="1.0" encoding="utf-8"?>
<!-- Generator: Adobe Illustrator 25.4.0, SVG Export Plug-In . SVG Version: 6.00 Build 0)  -->
<svg version="1.1" id="Capa_1" xmlns="http://www.w3.org/2000/svg" xmlns:xlink="http://www.w3.org/1999/xlink" x="0px" y="0px"
	 viewBox="0 0 548 446" style="enable-background:new 0 0 548 446;" xml:space="preserve">
<style type="text/css">
	.st0{opacity:0.83;fill:#47A7BD;}
	.st1{fill:#457FBF;}
	.st2{fill:#FFFFFF;}
</style>
<g>
	<path class="st0" d="M534.7,148.2C545.2,11.7,434.2-2.6,241.9,23.9c0,0-252,32.4-227.6,161.5s276.6,221.5,301,212.1
		c0,0,28.3,4.5,60.7-11.6S528.2,233.8,534.7,148.2z"/>
	<path class="st1" d="M103.1,172.1c0,0-78.4,61.7-47,131.7s107.3,192.8,348.9,89.5s79.1-165.6,32.7-176.1
		C391.2,206.6,197.8,90.8,103.1,172.1z"/>
</g>
<g>
	<path class="st2" d="M176.9,255.1c-0.6-1.1-1.3-2.1-2-3c-0.8-1-1.7-1.7-2.9-2.1l-1.6-0.7l-1.4-0.7l-1.6-0.2
		c-0.9-0.3-1.8-0.4-2.7-0.2l-1.6,0.5c-0.8,0-1.6,0.2-2.5,0.5c-0.6,0.4-1.2,0.9-1.9,1.2c-0.7,0.4-1.4,0.7-2.1,1l-2,1.8
		c-1.7,1.1-2.9,2-3.7,2.8c-0.8,0.8-1.8,1.9-2.8,3.3l-0.7,0.7l-2.5,2.9l-4.1,3.2c-0.2,0-0.2-0.1,0-0.3c0.1-0.2,0.1-0.3,0-0.3
		l-0.2-0.2c0.1-0.8,0.2-1.5,0.2-2.1c0-0.7,0.1-1.4,0.5-2.1c0.1-1.1,0.3-2.1,0.3-3.2c0.1-1.1,0-2.1-0.1-3.2l0.2-2
		c0-2-0.1-3.1-0.3-3.4c-0.2-0.3-0.9-1-2.1-2c-0.3-0.3-0.8-0.5-1.4-0.5c-0.2-0.1-0.3-0.2-0.5-0.2c-0.2,0-0.4-0.1-0.7-0.2
		c-0.6,0-0.9,0.2-0.9,0.5l-0.7,1.8v6.8c-0.2,2-0.3,3.8-0.5,5.6c-0.2,1.8-0.4,3.8-0.7,5.9l-0.5,4.3l-0.7,3.8
		c-0.2,0.8-0.3,1.4-0.5,1.9c-0.2,0.5-0.3,1-0.5,1.5c-0.3,0.8-0.5,1.4-0.7,2c-0.1,0.6-0.5,1.3-0.9,2c-0.5,1.1-1.1,2.6-2,4.7
		c-0.9,2.1-1.5,3.8-1.8,5l-1.1,1.4c-0.3,0.8-0.6,1.5-1,2.4c-0.4,0.8-0.7,1.8-1,2.8c-0.8,2.6-1.7,4.7-2.7,6.5
		c-0.5,0.8-0.8,1.6-1.1,2.5c-0.1,0.6-0.3,1.2-0.5,1.7c-0.1,0.5-0.2,1-0.2,1.5c0,0.9-0.2,1.5-0.7,1.9c-0.5,0.4-0.8,0.9-1.1,1.5v0.5
		c-0.3,1.1-0.7,2.1-1.1,3.2c-0.5,1.1-0.8,2.2-1.1,3.4c0.2,0.5,0.1,1.1-0.2,1.8c-1.1,2.1-1.9,4.3-2.5,6.7c-0.6,2.3-1.3,4.6-2,6.9
		c-0.3,0.7-0.5,1.4-0.5,2c0,0.6-0.1,1.3-0.2,2c-0.3,0.8-0.5,1.5-0.6,2.3c-0.1,0.8-0.2,1.6-0.3,2.5c-0.1,0.7-0.3,1.5-0.6,2.1
		c-0.2,0.7-0.3,1.4-0.1,2.1v0.9c-0.3,0.7-0.1,1.4,0.7,2c0.6,0.5,1.3,0.9,2,1.4c0.8,0.5,1.4,0.8,2,1.1c0.5,0.3,1.1,0.1,2-0.4l1.6-3.6
		c0.8-1.7,1.4-3.4,2-5.2c0.6-1.8,1.2-3.7,1.8-5.6l1.8-4.1c1.1-3.2,2.1-6.3,3.2-9.5c1.1-3.2,2-6.3,2.7-9.5c0.9-2.6,1.7-5,2.4-7.5
		c0.7-2.4,1.3-4.9,1.9-7.5c0.3-1.1,0.7-2.4,1.2-4c0.5-1.6,1.1-3.2,1.6-4.7c0.5-1.6,1-3.1,1.4-4.6c0.4-1.5,0.7-2.7,1-3.6
		c0.3-0.9,0.6-1.7,1-2.5c0.4-0.8,0.7-1.5,1-2.3c0.6-0.9,1.6-2.3,2.9-4.3c1.4-2,2.2-3.4,2.5-4.3c1.2-1.2,2.2-2.6,2.9-4.3
		c1.1-0.7,1.9-1.7,2.5-2.7l4.7-4.5c0.5-0.6,1-1.1,1.6-1.6c0.6-0.5,1.1-1,1.6-1.6c1.1-0.6,2.1-1.3,3-2c1-0.7,2.1-1.4,3.3-2
		c0.8-0.4,1-0.6,0.8-0.6c-0.2,0.1,0,0,0.8-0.1l1.8,0.2c0.6,0,0.9,0.4,0.9,1.1l-0.2,0.5c0.8,2.7,0.8,4.8,0.2,6.3
		c-0.2,1.4-0.5,2.7-0.9,4.1c-0.5,1.4-1,2.6-1.6,3.8c-0.8,0.9-1.5,1.8-2.1,2.7c-0.7,0.9-1.4,1.8-2.1,2.7c-0.9,1.2-1.4,1.8-1.6,1.8
		c-0.2,0-0.5,0.3-0.9,0.9c-0.5,0.5-0.8,0.6-0.9,0.5c-0.9,1.2-2,2.1-3.4,2.8c-1.4,0.7-2.9,1.3-4.5,1.9c-0.3,0.3-0.4,0.4-0.2,0.3
		c0.1-0.1,0.1,0-0.2,0.3c-0.6-0.5-1.2-0.6-1.7-0.3c-0.5,0.2-0.9,0.6-1,1c-0.2,0.5-0.1,0.9,0.2,1.5c0.3,0.5,0.9,0.9,1.8,1
		c0.8,0.3,1.8,0.6,3.2,0.8c1.4,0.2,2.3,0.2,2.9-0.1c0.6-0.1,1.2-0.3,1.9-0.3c0.7-0.1,1.4-0.3,2.1-0.6c0.8-0.5,1.5-0.8,2.4-1.1
		c0.8-0.3,1.6-0.7,2.4-1.1c1.4-1.2,2.6-2.3,3.6-3.3c1.1-1,2.1-2.1,3.2-3.3c1.5-1.8,2.7-3.6,3.5-5.3c0.8-1.7,1.6-3.5,2.4-5.3
		c0.3-0.9,0.5-1.7,0.6-2.4c0.1-0.7,0.1-1.4,0.1-2.1c0.3-0.8,0.4-1.7,0.3-2.8c-0.1-1.1-0.4-2.1-1-2.8V255.1z"/>
	<path class="st2" d="M360,255.1c-0.6-1.1-1.3-2.1-2-3c-0.8-1-1.7-1.7-2.9-2.1l-1.6-0.7l-1.4-0.7l-1.6-0.2c-0.9-0.3-1.8-0.4-2.7-0.2
		l-1.6,0.5c-0.8,0-1.6,0.2-2.5,0.5c-0.6,0.4-1.2,0.9-1.9,1.2c-0.7,0.4-1.4,0.7-2.1,1l-2,1.8c-1.7,1.1-2.9,2-3.7,2.8
		c-0.8,0.8-1.8,1.9-2.8,3.3l-0.7,0.7l-2.5,2.9l-4.1,3.2c-0.2,0-0.2-0.1,0-0.3c0.1-0.2,0.1-0.3,0-0.3l-0.2-0.2
		c0.1-0.8,0.2-1.5,0.2-2.1c0-0.7,0.1-1.4,0.5-2.1c0.1-1.1,0.3-2.1,0.3-3.2c0.1-1.1,0-2.1-0.1-3.2l0.2-2c0-2-0.1-3.1-0.3-3.4
		c-0.2-0.3-0.9-1-2.1-2c-0.3-0.3-0.8-0.5-1.4-0.5c-0.2-0.1-0.3-0.2-0.5-0.2c-0.2,0-0.4-0.1-0.7-0.2c-0.6,0-0.9,0.2-0.9,0.5l-0.7,1.8
		v6.8c-0.1,1.8-0.3,3.6-0.4,5.2c-0.1,0.1-0.1,0.2-0.3,0.2c-1.5,1.2-2.5,2.1-3,2.6c-0.5,0.5-0.9,0.9-1.2,1.2c-0.3,0.3-0.6,0.6-1,0.8
		c-0.4,0.2-1.1,0.6-2.1,1.2c-2.3,1.1-4.3,2-6.2,2.7c-1.9,0.8-3.9,1.4-6,1.9c-2.1,0.5-4.4,1-6.9,1.5c-2.5,0.5-5.4,0.9-8.7,1.4
		c-0.2-0.1-0.2-0.4,0-0.7c0.1-0.3,0.2-0.5,0.2-0.7c0.8-1.7,1.2-2.9,1.5-3.7c0.2-0.8,0.6-2.1,1.2-3.7c0.5-1.2,0.8-2.3,1.1-3.3
		c0.3-1,0.3-2.5,0-4.6c0.1-0.9,0.1-1.7,0-2.3c-0.2-0.7-0.3-1.6-0.6-2.5c-0.2-0.9-0.7-1.7-1.5-2.5c-0.3-0.7-0.8-1.4-1.6-1.8
		c-0.8-0.5-1.5-0.7-2.3-0.9c-0.5-0.1-1.2-0.2-2.3-0.2c-1.1,0-2.2,0.1-3.4,0.2c-1.5,0.2-3.3,0.8-5.4,2l-2.3,1.6
		c-1.5,1.7-2.7,2.8-3.7,3.5c-1,0.7-2,2-3,3.9c-0.5,1.5-1.1,2.8-2,3.8c-0.2,0.2-0.3,0.4-0.4,0.7c-0.8,0.3-1.3,0.4-1.3,0.4
		c-0.1-0.1-0.5,0.3-1.2,1c-1.5,1.1-2.4,1.7-2.7,1.9c-0.3,0.2-1.1,0.7-2.5,1.5c-2.1,1.1-4.2,2.1-6.2,3.3c-2,1.1-4.3,2.3-6.7,3.5
		c-4.7,2.1-9.3,4.1-13.8,6.1c-4.5,2-9.6,3.6-15.1,5c-1.5,0.6-3,0.9-4.4,0.9c-1.4,0-2.7,0.1-4,0.2c-1.1,0-1.9-0.1-2.5-0.2
		c-0.8,0-1.5-0.1-2.4-0.5c-0.8-0.3-1.5-0.8-2.1-1.6c-0.9-0.9-1.4-1.7-1.6-2.5c0-1.1,0-2.3,0.1-3.6c0.1-1.4,0.5-2.6,1.2-3.6
		c0-0.1,0.1-0.2,0.2-0.2h0.5l0.9,0.7c0.9,1.2,2,1.4,3.2,0.7c0.8-0.1,1.5-0.3,2.1-0.3c0.7-0.1,1.2-0.3,1.7-0.8
		c0.3-0.3,0.7-0.6,1.2-0.9c0.5-0.3,0.9-0.6,1.2-0.9c2.1-1.7,4.1-3.4,6-5.2c1.9-1.8,3.6-3.7,5.3-5.6c2.3-2.3,3.2-5.2,2.7-8.8
		l-0.9-2.3c-0.8-0.8-1.8-1.4-3-2c-1.3-0.6-2.5-0.7-3.7-0.2c-0.8,0.5-1.4,0.7-1.8,0.7c-1.8,0.9-3.5,1.8-5,2.8c-1.5,1-2.9,2-4.1,3
		c-4.1,3.3-7.4,6.9-9.9,10.8c-1.1,1.7-1.7,2.8-2,3.4c-0.3,0.6-0.8,1.8-1.6,3.6l-0.5,1.4c-0.3,0.3-0.5,0.9-0.6,1.9
		c-0.1,1-0.1,1.6-0.1,1.9c-0.3,2.4,0.3,4.6,1.7,6.5c1.4,2,3,3.8,4.6,5.4c1.2,1.1,2.7,1.7,4.4,1.9c1.7,0.2,3.4,0.5,5.1,0.8
		c1.8,0,3.2,0,4.1-0.1c0.9-0.1,2.2-0.3,3.8-0.8l6.5-1.8c3.3-0.8,6.5-1.8,9.6-3.1c3.1-1.3,6.1-2.5,9.1-3.7c1.4-0.6,2.7-1.3,4.2-2
		c1.4-0.8,3-1.5,4.6-2.3c2.4-1.5,4.7-2.9,7-4.1c1.7-0.9,3.4-2,5.1-3.2c-1.6,3.4-2.2,7.3-1.8,11.5c0,1.7,0.5,3.3,1.4,5
		c0.9,1.7,2.2,2.9,3.8,3.8c0.3,0.3,1,0.6,2.3,0.8c1.2,0.2,2.2,0.3,2.9,0.1c1.7,0,3.3-0.4,5-1.1c1.7-0.8,3.1-1.8,4.3-3.2l1.8-2
		c0.8-1.2,1.5-2.1,2.4-2.7c0.8-0.6,1.6-1.5,2.4-2.7c0.1-0.6,0.3-1.1,0.3-1.4c0.1-0.3,0.4-0.5,1-0.7c0.3-0.1,0.6-0.2,1-0.2
		c0.4,0,0.7,0,1,0c3.5,0,7.3-0.5,11.5-1.6c4.2-1.1,7.4-2.1,9.7-3.2c1.8-0.7,3.1-1.3,3.8-1.6c0.8-0.3,1.4-0.6,1.9-0.9
		c0.5-0.3,1.2-0.7,2-1.2c0.8-0.5,2.2-1.5,4.2-2.8c0.5-0.3,1-0.5,1.3-0.7l-0.4,3.9l-0.7,3.8c-0.2,0.8-0.3,1.4-0.5,1.9
		c-0.2,0.5-0.3,1-0.5,1.5c-0.3,0.8-0.5,1.4-0.7,2c-0.1,0.6-0.5,1.3-0.9,2c-0.5,1.1-1.1,2.6-2,4.7c-0.9,2.1-1.5,3.8-1.8,5l-1.1,1.4
		c-0.3,0.8-0.6,1.5-1,2.4c-0.4,0.8-0.7,1.8-1,2.8c-0.8,2.6-1.7,4.7-2.7,6.5c-0.5,0.8-0.8,1.6-1.1,2.5c-0.1,0.6-0.3,1.2-0.5,1.7
		c-0.1,0.5-0.2,1-0.2,1.5c0,0.9-0.2,1.5-0.7,1.9c-0.5,0.4-0.8,0.9-1.1,1.5v0.5c-0.3,1.1-0.7,2.1-1.1,3.2c-0.5,1.1-0.8,2.2-1.1,3.4
		c0.2,0.5,0.1,1.1-0.2,1.8c-1.1,2.1-1.9,4.3-2.5,6.7c-0.6,2.3-1.3,4.6-2,6.9c-0.3,0.7-0.5,1.4-0.5,2c0,0.6-0.1,1.3-0.2,2
		c-0.3,0.8-0.5,1.5-0.6,2.3c-0.1,0.8-0.2,1.6-0.3,2.5c-0.1,0.7-0.3,1.5-0.6,2.1c-0.2,0.7-0.3,1.4-0.1,2.1v0.9
		c-0.3,0.7-0.1,1.4,0.7,2c0.6,0.5,1.3,0.9,2,1.4c0.8,0.5,1.4,0.8,2,1.1c0.5,0.3,1.1,0.1,2-0.4l1.6-3.6c0.8-1.7,1.4-3.4,2-5.2
		c0.6-1.8,1.2-3.7,1.8-5.6l1.8-4.1c1.1-3.2,2.1-6.3,3.2-9.5c1.1-3.2,2-6.3,2.7-9.5c0.9-2.6,1.7-5,2.4-7.5s1.3-4.9,1.9-7.5
		c0.3-1.1,0.7-2.4,1.2-4c0.5-1.6,1.1-3.2,1.6-4.7c0.5-1.6,1-3.1,1.4-4.6c0.4-1.5,0.7-2.7,1-3.6c0.3-0.9,0.6-1.7,1-2.5
		c0.4-0.8,0.7-1.5,1-2.3c0.6-0.9,1.6-2.3,2.9-4.3c1.4-2,2.2-3.4,2.5-4.3c1.2-1.2,2.2-2.6,2.9-4.3c1.1-0.7,1.9-1.7,2.5-2.7l4.7-4.5
		c0.5-0.6,1-1.1,1.6-1.6c0.6-0.5,1.1-1,1.6-1.6c1.1-0.6,2.1-1.3,3-2c1-0.7,2.1-1.4,3.3-2c0.8-0.4,1-0.6,0.8-0.6
		c-0.2,0.1,0,0,0.8-0.1l1.8,0.2c0.6,0,0.9,0.4,0.9,1.1l-0.2,0.5c0.8,2.7,0.8,4.8,0.2,6.3c-0.2,1.4-0.5,2.7-0.9,4.1
		c-0.5,1.4-1,2.6-1.6,3.8c-0.8,0.9-1.5,1.8-2.1,2.7c-0.7,0.9-1.4,1.8-2.1,2.7c-0.9,1.2-1.4,1.8-1.6,1.8c-0.2,0-0.5,0.3-0.9,0.9
		c-0.5,0.5-0.8,0.6-0.9,0.5c-0.9,1.2-2,2.1-3.4,2.8c-1.4,0.7-2.9,1.3-4.5,1.9c-0.3,0.3-0.4,0.4-0.2,0.3c0.1-0.1,0.1,0-0.2,0.3
		c-0.6-0.5-1.2-0.6-1.7-0.3c-0.5,0.2-0.9,0.6-1,1c-0.2,0.5-0.1,0.9,0.2,1.5c0.3,0.5,0.9,0.9,1.8,1c0.8,0.3,1.8,0.6,3.2,0.8
		c1.4,0.2,2.3,0.2,2.9-0.1c0.6-0.1,1.2-0.3,1.9-0.3c0.7-0.1,1.4-0.3,2.1-0.6c0.8-0.5,1.5-0.8,2.4-1.1c0.8-0.3,1.6-0.7,2.4-1.1
		c1.4-1.2,2.6-2.3,3.6-3.3c1.1-1,2.1-2.1,3.2-3.3c1.5-1.8,2.7-3.6,3.5-5.3c0.8-1.7,1.6-3.5,2.4-5.3c0.3-0.9,0.5-1.7,0.6-2.4
		c0.1-0.7,0.1-1.4,0.1-2.1c0.3-0.8,0.4-1.7,0.3-2.8c-0.1-1.1-0.4-2.1-1-2.8V255.1z M198.3,267.1c1.2-2.6,2.8-4.7,4.9-6.3
		c2-1.7,4.5-3.1,7.3-4.3c0.1,0,0.3,0,0.5-0.1c0.1-0.1,0.3-0.1,0.5-0.1c-2.1,2.6-4.3,4.9-6.5,7c-2.3,2.1-4.7,3.9-7.2,5.4
		C198,267.6,198.2,267.1,198.3,267.1z M271.6,278.5c-0.1,0.2-0.3,0.5-0.6,0.8c-0.8,2-1.7,3.4-2.7,4.3c-1.1,0.9-2.2,2-3.4,3.2
		c-3.8,2.9-5.5,2.6-5.2-0.9v-0.7c0-1.7,0-3.4,0.1-5.2c0.1-1.8,0.6-3.5,1.5-5.2c0.1-0.5,0.4-0.9,0.7-1.5c0.3-0.5,0.5-0.6,0.7-0.3
		c0.9,1.4,2.3,2.4,4.1,3.3c1.8,0.8,3.1,1.4,3.8,1.7c0.6-0.1,0.9-0.1,1,0C271.7,278.1,271.7,278.3,271.6,278.5z M279.4,261.4
		c-0.9,1.8-1.8,4-2.7,6.5c-0.9,2.6-2,4.6-3.2,6.1c-0.3,0.3-1.2,0.2-2.6-0.3c-1.4-0.5-2.4-0.9-2.8-1.2c-0.2-0.3-0.4-0.6-0.8-0.8
		c-0.4-0.2-0.6-0.4-0.6-0.6c-1.7-0.7-2.3-1.8-2-3.2c0-1.5,0.4-2.9,1.1-4.1c0.8-1.7,1.7-3.3,2.8-5c1.1-1.7,2.6-3.2,4.4-4.5
		c0.8-0.1,1.4-0.5,2-0.9c0.6-0.6,1.7-0.7,3.2-0.2c1.5,0.5,2,1.3,1.6,2.5C280.1,257.8,280,259.6,279.4,261.4z"/>
	<path class="st2" d="M403.1,214.9c0.3-0.3,0.5-0.6,0.5-0.8c0-0.2,0.1-0.5,0.2-0.8l5.2-12.4c1.2-3.2,2.4-6.1,3.5-8.9
		c1.1-2.8,2.1-5.7,3-8.7c0.3-0.4,0.4-0.9,0.2-1.2c-0.2-0.4-0.4-0.7-0.7-1c-0.9-0.5-1.9-0.9-2.9-1.4c-1.1-0.4-2.2-0.6-3.4-0.4
		c-1.5,0.4-2.3,1.1-2.3,1.8c0.1,0.6,0.1,1.1,0,1.5c-0.2,0.4-0.2,0.8-0.2,1.2l-0.5,2c-0.6,2.4-1.3,4.6-2.1,6.7
		c-0.8,2-1.7,4.1-2.6,6.2c-1.2,2.4-2.2,4.8-3,7.2c-0.8,2.4-1.7,4.9-2.6,7.4c0,0.2-0.2,0.3-0.5,0.5c-0.8,1.5-1.4,3-1.8,4.5
		c-0.5,1.5-1.1,3.1-2,4.7c-0.3,0.9-0.7,1.8-1.1,2.7c-0.5,0.9-0.8,1.7-0.9,2.5c-0.8,1.7-1.3,3.2-1.7,4.6c-0.4,1.4-0.9,3-1.5,4.6
		c-0.2,0.2-0.7,1.6-1.7,4.3c-1,2.7-2,5.8-3.2,9.1c-1.1,3.4-2.2,6.6-3.2,9.6c-1,3-1.6,4.9-1.9,5.6v0.5c-0.6,1.7-1,3.2-1.2,4.6
		c-0.2,1.4-0.6,2.9-1.2,4.4l-0.7,5.2c-0.3,1.2-0.6,2.3-0.9,3.2c-0.3,0.9-0.5,1.9-0.5,2.9c-0.1,1.2-0.4,2.4-0.8,3.5
		c-0.4,1.1-0.5,2.2-0.3,3.3c0,0.9,0,1.8,0,2.6c0,0.8-0.1,1.6-0.5,2.4c-0.5,0.5-0.5,1.1-0.2,2c0,1.4,0.1,2.7,0.3,4.2
		c0.2,1.4,0.2,2.9-0.1,4.4c0.3,1.2,0.6,2.3,0.9,3.3c0.3,1,1,1.8,2,2.6c1.4,1.4,2.9,2,4.7,2c1.7,0,2.8-0.3,3.5-0.9
		c0.7-0.6,1.1-1.2,1.1-1.9c0.1-0.7-0.2-1.2-0.7-1.7c-0.5-0.5-1.2-0.5-1.9,0c-0.2,0.2-0.3,0.2-0.5,0c-0.2-0.1-0.2-0.4-0.2-0.7
		l-0.5-0.4c-0.5-1.4-0.8-2.7-1-4.2c-0.2-1.4-0.2-2.7,0.1-4c0.1-0.5,0.3-0.8,0.5-1.1c0.1-0.3,0.1-0.7,0-1.1c-0.2-1.5-0.1-2.9,0.2-4.3
		c0.3-1.4,0.5-2.7,0.5-4.1c-0.2-1.8,0-3.7,0.5-5.8c0.5-2,1-4.3,1.6-6.9c0.6-1.2,1-2.4,1.2-3.6c0.2-1.2,0.5-2.5,0.8-3.8
		c0.1-1.1,0.4-2.2,0.8-3.4c0.4-1.2,0.7-2.3,1-3.4c0.5-1.7,1.1-3.7,1.8-6.1c0.8-2.4,1.5-4.8,2.3-7.2c0.8-2.4,1.5-4.6,2.1-6.4
		c0.7-1.9,1.2-3.2,1.5-4c0.3-1.2,0.7-2.3,1.1-3.3c0.5-1,0.8-2,1.1-3c1.2-2.1,2.1-4.3,2.7-6.4c0.6-2.2,1.4-4.3,2.5-6.4
		c0.8-1.4,1.4-2.7,1.8-4C402,217.8,402.5,216.4,403.1,214.9z"/>
	<path class="st2" d="M475.3,265.6c-0.2-0.8-0.4-1.5-0.6-2.1c-0.2-0.4-0.2-0.8-0.1-1c0.1-0.2,0-0.2-0.3,0.1
		c-1.2,0.5-1.8,0.6-1.9,0.6c-0.1-0.1-0.5,0.3-1.2,1c-1.5,1.1-2.4,1.7-2.7,1.9c-0.3,0.2-1.1,0.7-2.5,1.5c-2.1,1.1-4.2,2.1-6.2,3.3
		c-2,1.1-4.3,2.3-6.7,3.5c-4.7,2.1-9.3,4.1-13.8,6.1c-4.5,2-9.6,3.6-15.1,5c-1.5,0.6-3,0.9-4.4,0.9c-1.4,0-2.7,0.1-4,0.2
		c-1.1,0-1.9-0.1-2.5-0.2c-0.8,0-1.5-0.1-2.4-0.5c-0.8-0.3-1.5-0.8-2.1-1.6c-0.9-0.9-1.4-1.7-1.6-2.5c0-1.1,0-2.3,0.1-3.6
		c0.1-1.4,0.5-2.6,1.2-3.6c0-0.1,0.1-0.2,0.2-0.2h0.5l0.9,0.7c0.9,1.2,2,1.4,3.2,0.7c0.8-0.1,1.5-0.3,2.1-0.3
		c0.7-0.1,1.2-0.3,1.7-0.8c0.3-0.3,0.7-0.6,1.2-0.9c0.5-0.3,0.9-0.6,1.2-0.9c2.1-1.7,4.1-3.4,6-5.2c1.9-1.8,3.6-3.7,5.3-5.6
		c2.3-2.3,3.2-5.2,2.7-8.8l-0.9-2.3c-0.8-0.8-1.8-1.4-3-2c-1.3-0.6-2.5-0.7-3.7-0.2c-0.8,0.5-1.4,0.7-1.8,0.7
		c-1.8,0.9-3.5,1.8-5,2.8c-1.5,1-2.9,2-4.1,3c-4.1,3.3-7.4,6.9-9.9,10.8c-1.1,1.7-1.7,2.8-2,3.4c-0.3,0.6-0.8,1.8-1.6,3.6l-0.5,1.4
		c-0.3,0.3-0.5,0.9-0.6,1.9c-0.1,1-0.1,1.6-0.1,1.9c-0.3,2.4,0.3,4.6,1.7,6.5c1.4,2,3,3.8,4.6,5.4c1.2,1.1,2.7,1.7,4.4,1.9
		c1.7,0.2,3.4,0.5,5.1,0.8c1.8,0,3.2,0,4.1-0.1c0.9-0.1,2.2-0.3,3.8-0.8l6.5-1.8c3.3-0.8,6.5-1.8,9.6-3.1c3.1-1.3,6.1-2.5,9.1-3.7
		c1.4-0.6,2.7-1.3,4.2-2c1.4-0.8,3-1.5,4.6-2.3c2.4-1.5,4.7-2.9,7-4.1c2.3-1.2,4.5-2.6,6.8-4.3c1.1-0.9,1.5-1.4,1.4-1.5
		c-0.2-0.1,0.3-0.6,1.4-1.7C475.3,267.1,475.5,266.4,475.3,265.6z M414,267.1c1.2-2.6,2.8-4.7,4.9-6.3c2-1.7,4.5-3.1,7.3-4.3
		c0.1,0,0.3,0,0.5-0.1c0.1-0.1,0.3-0.1,0.5-0.1c-2.1,2.6-4.3,4.9-6.5,7c-2.3,2.1-4.7,3.9-7.2,5.4C413.6,267.6,413.8,267.1,414,267.1
		z"/>
	<path class="st2" d="M188.6,201.8l-11.4-10.6c-1,1.2-12.6,16.2-37.4,16.2c-31.5,0-51.3-22.6-51.3-52.1c0-30.2,21.3-52.1,49.5-52.1
		c24.8,0,36.4,15,37.4,16.2l11.4-10.6c-1.5-2-15.6-20.6-48.8-20.6c-38.4,0-66.6,29.5-66.6,67c0,37.1,26.8,67,68.4,67
		C173,222.4,187.1,203.5,188.6,201.8z"/>
	<path class="st2" d="M220.8,160c0-29.5,6.4-56.7,38.9-56.7c2.2,0,4.7,0.5,6.9,1l3.2-14.7c-1.2-0.2-4.5-1.2-8.9-1.2
		c-22.5,0-35.7,11.3-41.6,26l0.2-22.6h-15.4v127.2h16.6V160z"/>
	<path class="st2" d="M378.4,218.9v-83.5c0-14.7-2.5-18.7-3.5-20.9c3.7-2.5,16.3-11,36.9-11c17.3,0,31.7,12.5,31.7,33.1v82.3h16.4
		v-84c0-29.2-19.3-46.4-48.3-46.4c-24.8,0-41.1,10.6-45.3,13.5c-3.2-3.7-13.4-13.7-38.4-13.7c-26.5,0-42.1,4.9-50.3,8.8
		c2.5,3.9,3.2,2.5,3.2,13.5v108.3h16.4V107.5c0.7-0.2,10.9-4.2,31-4.2c21.3,0,33.9,11.3,33.9,32.7v83H378.4z"/>
</g>
</svg>
